<svg class="svg-icon" enable-background="new 0 0 96 96" viewBox="0 0 96 96" xmlns="http://www.w3.org/2000/svg"><path d="m48 20c21.15 0 34.502 19.998 38.998 28-4.504 8.016-17.853 28-38.998 28-21.147 0-34.497-19.882-38.997-27.851 4.497-8.048 17.85-28.149 38.997-28.149m0-8c-32 0-48 36.166-48 36.166s16 35.834 48 35.834 48-36 48-36-16-36-48-36z"/><path d="m48 40c4.411 0 8 3.589 8 8s-3.589 8-8 8-8-3.589-8-8 3.589-8 8-8m0-8c-8.836 0-16 7.164-16 16 0 8.837 7.164 16 16 16 8.837 0 16-7.163 16-16 0-8.836-7.163-16-16-16z"/></svg>