<svg class="svg-icon" viewBox="0 0 96 96" xmlns="http://www.w3.org/2000/svg"><path d="m82.24 22.2438a5.999 5.999 0 1 0 -8.4838-8.4838l-4.3012 4.3012a41.15 41.15 0 0 0 -21.455-6.059c-22.1588 0-35.6814 15.7022-46.9893 32.67a5.9842 5.9842 0 0 0 0 6.6558 110.6522 110.6522 0 0 0 15.8105 19.367l-3.0612 3.0612a5.999 5.999 0 1 0 8.4838 8.4838zm-68.9723 25.7562c12.0579-17.2079 22.0065-23.9985 34.7323-23.9985a29.3537 29.3537 0 0 1 12.6716 2.8431l-9.5927 9.5926a11.1546 11.1546 0 0 0 -3.0789-.4365 12.0112 12.0112 0 0 0 -11.9993 11.9993 11.1589 11.1589 0 0 0 .4365 3.0789l-11.1358 11.1358a88.0132 88.0132 0 0 1 -12.0337-14.2147z"/><path d="m94.9893 44.6721c-2.4234-3.6363-4.9809-7.1751-7.6709-10.5528l-8.5461 8.5461c1.3007 1.6669 2.6131 3.4128 3.96 5.3346-11.5562 16.4924-21.2016 23.3423-33.1848 23.89l-10.9761 10.9763a42.5472 42.5472 0 0 0 9.4286 1.1315c22.1588 0 35.6814-15.7022 46.9893-32.67a5.9842 5.9842 0 0 0 0-6.6557z"/></svg>