<svg class="svg-icon" clip-rule="evenodd" fill-rule="evenodd" stroke-linejoin="round" stroke-miterlimit="1.41421" viewBox="0 0 49 49" xmlns="http://www.w3.org/2000/svg"><path d="m5.924 14.362c-.324 0-.615-.195-.739-.494s-.055-.643.173-.871c1.541-1.541 3.975-3.975 5.069-5.069.15-.15.353-.234.566-.234.212 0 .415.084.565.234 1.094 1.094 3.528 3.528 5.069 5.069.229.228.297.572.173.871-.123.299-.415.494-.739.494-1.407 0-3.068 0-3.068 0v20h3.068c.324 0 .616.195.739.494.124.299.056.643-.173.872-1.541 1.541-3.975 3.974-5.069 5.069-.15.15-.353.234-.565.234-.213 0-.416-.084-.566-.234-1.094-1.095-3.528-3.528-5.069-5.069-.228-.229-.297-.573-.173-.872s.415-.494.739-.494h3.069v-20s-1.662 0-3.069 0zm37.069 20c.53 0 1.039.211 1.414.586s.586.884.586 1.414c0 .531-.211 1.039-.586 1.414-.375.376-.884.586-1.414.586-4.52 0-15.48 0-20 0-.531 0-1.04-.21-1.415-.586-.375-.375-.585-.883-.585-1.414 0-.53.21-1.039.585-1.414s.884-.586 1.415-.586zm0-12c.53 0 1.039.211 1.414.586s.586.884.586 1.414c0 .531-.211 1.039-.586 1.414-.375.376-.884.586-1.414.586-4.52 0-15.48 0-20 0-.531 0-1.04-.21-1.415-.586-.375-.375-.585-.883-.585-1.414 0-.53.21-1.039.585-1.414s.884-.586 1.415-.586zm0-12c.53 0 1.039.211 1.414.586s.586.884.586 1.414c0 .531-.211 1.039-.586 1.414-.375.376-.884.586-1.414.586-4.52 0-15.48 0-20 0-.531 0-1.04-.21-1.415-.586-.375-.375-.585-.883-.585-1.414 0-.53.21-1.039.585-1.414s.884-.586 1.415-.586z" fill="#000000"/><path d="m.993.362h48v48h-48z" fill="none"/></svg>