<svg class="svg-icon" viewBox="0 0 64 64"><path d="m9.0088 33.209a.9984.9984 0 0 1 -.7725-.3638 9.7937 9.7937 0 0 1 7.5567-16.0229 9.4806 9.4806 0 0 1 1.0927.0639 9.5863 9.5863 0 0 1 -.0634-1.0927 9.7935 9.7935 0 1 1 16.8349 6.8065l5.6992 5.7a1 1 0 0 1 -1.414 1.4141l-6.4336-6.4341a1 1 0 0 1 .0693-1.4776 7.807 7.807 0 1 0 -12.4629-3.9194.9993.9993 0 0 1 -1.23 1.2324 7.79 7.79 0 0 0 -8.1059 12.4574 1 1 0 0 1 -.77 1.6362z"/><path d="m38.1689 58a9.4331 9.4331 0 0 1 -6.996-15.77l-8.5723-8.5733a9.8085 9.8085 0 0 1 -8.8037 2.5484 1 1 0 1 1 .4062-1.958 7.8647 7.8647 0 0 0 1.59.1621 7.7763 7.7763 0 0 0 6.01-2.8311.9994.9994 0 0 1 1.4776-.07l10.0172 10.0183a.9989.9989 0 0 1 -.045 1.4565 7.4477 7.4477 0 1 0 12.0782 3.58.9983.9983 0 0 1 .2558-.9756 1.01 1.01 0 0 1 .9756-.2563 7.44 7.44 0 1 0 -3.5791-12.0777 1.0015 1.0015 0 0 1 -.7188.3379 1.025 1.025 0 0 1 -.7382-.2925l-1.2012-1.2016a1 1 0 0 1 1.4141-1.4141l.4912.4907a9.438 9.438 0 1 1 6.3281 16.4363 9.13 9.13 0 0 1 -1.0039-.0557 9.13 9.13 0 0 1 .0557 1.0039 9.4521 9.4521 0 0 1 -9.4415 9.4418z"/></svg>